<?xml version="1.0" standalone="no"?>
<!DOCTYPE svg PUBLIC "-//W3C//DTD SVG 20010904//EN"
 "http://www.w3.org/TR/2001/REC-SVG-20010904/DTD/svg10.dtd">
<svg version="1.0" xmlns="http://www.w3.org/2000/svg"
 width="108.000000pt" height="108.000000pt" viewBox="0 0 108.000000 108.000000"
 preserveAspectRatio="xMidYMid meet">
<metadata>
Created by potrace 1.10, written by Peter Selinger 2001-2011
</metadata>
<g transform="translate(0.000000,108.000000) scale(0.100000,-0.100000)"
fill="#000000" stroke="none">
<path d="M304 571 c-64 -162 -69 -178 -47 -164 14 9 29 27 34 40 5 15 17 23
32 23 13 0 32 7 43 15 18 15 17 15 -13 13 -18 -2 -33 2 -33 7 -1 19 43 134 50
130 4 -2 15 -31 25 -64 17 -58 18 -59 44 -48 14 6 27 12 29 13 5 3 -81 214
-87 214 -4 0 -38 -81 -77 -179z"/>
<path d="M486 729 c3 -5 16 -9 30 -9 23 0 24 -2 24 -81 0 -70 2 -80 16 -75 9
3 22 6 30 6 10 0 14 14 14 53 0 71 9 97 31 97 11 0 19 4 19 9 0 4 -38 8 -85 9
-47 0 -82 -4 -79 -9z"/>
<path d="M741 724 c8 -10 -1 -26 -43 -71 -29 -32 -57 -61 -63 -65 -5 -4 -1 -8
10 -8 12 0 43 22 70 50 59 60 104 90 134 90 11 0 21 4 21 9 0 6 -32 10 -70 9
-58 0 -68 -3 -59 -14z"/>
<path d="M695 573 c-166 -25 -299 -82 -424 -182 -50 -39 -81 -57 -95 -55 -12
3 -15 1 -7 -2 7 -4 25 -20 40 -35 l26 -29 94 90 c51 50 98 89 104 87 14 -4 39
-78 33 -99 -4 -16 5 -18 97 -17 56 1 93 3 82 6 -33 8 -35 15 -41 114 l-5 94
43 -50 c24 -27 66 -75 94 -104 l52 -55 68 -3 c63 -2 66 -1 34 9 -23 7 -68 44
-128 106 -111 114 -109 118 42 109 55 -3 94 -2 86 3 -19 10 -155 19 -195 13z
m-156 -130 l-1 -68 -24 54 c-23 51 -24 54 -7 67 30 22 33 17 32 -53z"/>
<path d="M394 279 c-24 -4 -20 -6 26 -12 78 -11 259 -5 269 7 10 12 -239 16
-295 5z"/>
</g>
</svg>
